<svg width="44" height="23" viewBox="0 0 44 23" fill="none" xmlns="http://www.w3.org/2000/svg">
<path d="M12.11 18.144C10.454 18.144 9.152 17.67 8.204 16.722C7.256 15.774 6.782 14.388 6.782 12.564V5.4H8.582V12.492C8.582 13.896 8.888 14.922 9.5 15.57C10.124 16.218 11 16.542 12.128 16.542C13.268 16.542 14.144 16.218 14.756 15.57C15.38 14.922 15.692 13.896 15.692 12.492V5.4H17.438V12.564C17.438 14.388 16.964 15.774 16.016 16.722C15.08 17.67 13.778 18.144 12.11 18.144ZM18.5585 19.8L24.4985 2.844H26.0645L20.1245 19.8H18.5585ZM24.6519 18L30.3579 5.4H32.1399L37.8639 18H35.9739L30.8799 6.408H31.5999L26.5059 18H24.6519ZM27.0819 14.85L27.5679 13.41H34.6599L35.1819 14.85H27.0819Z" fill="white"/>
<rect x="0.5" y="0.5" width="43" height="22" rx="4.5" stroke="white"/>
</svg>
