<svg width="31" height="31" viewBox="0 0 31 31" fill="none" xmlns="http://www.w3.org/2000/svg">
<path d="M25.8333 15.5V28.4167H5.16666V15.5" stroke="white" stroke-width="2" stroke-linecap="round" stroke-linejoin="round"/>
<path d="M28.4167 9.04166H2.58334V15.5H28.4167V9.04166Z" stroke="white" stroke-width="2" stroke-linecap="round" stroke-linejoin="round"/>
<path d="M15.5 28.4167V9.04166" stroke="white" stroke-width="2" stroke-linecap="round" stroke-linejoin="round"/>
<path d="M15.5 9.04168H9.68751C8.83108 9.04168 8.00973 8.70146 7.40414 8.09588C6.79856 7.49029 6.45834 6.66894 6.45834 5.81251C6.45834 4.95608 6.79856 4.13473 7.40414 3.52914C8.00973 2.92356 8.83108 2.58334 9.68751 2.58334C14.2083 2.58334 15.5 9.04168 15.5 9.04168Z" stroke="white" stroke-width="2" stroke-linecap="round" stroke-linejoin="round"/>
<path d="M15.5 9.04168H21.3125C22.1689 9.04168 22.9903 8.70146 23.5959 8.09588C24.2015 7.49029 24.5417 6.66894 24.5417 5.81251C24.5417 4.95608 24.2015 4.13473 23.5959 3.52914C22.9903 2.92356 22.1689 2.58334 21.3125 2.58334C16.7917 2.58334 15.5 9.04168 15.5 9.04168Z" stroke="white" stroke-width="2" stroke-linecap="round" stroke-linejoin="round"/>
</svg>
